<svg xmlns="http://www.w3.org/2000/svg" width="155" height="155" viewBox="0 0 155 85" preserveAspectRatio="xMinYMin meet"><defs><style>.cls-1{fill:#bcbcbb;}.cls-2{fill:#c30b28;}.cls-3{fill:#cea723;}.cls-4{fill:#a98dbd;}.cls-5{fill:#cd5897;}.cls-6{fill:#925897;}.cls-7{fill:#c8451b;}.cls-8{fill:#303c8b;}.cls-9{fill:#33a0a1;}.cls-10{fill:#329748;}.cls-11{fill:#138b65;}.cls-12{fill:#9cbd39;}.cls-13{fill:#b0b0b0;}.cls-14{fill:#333;}</style></defs><title>tangram-coworking-logo</title><g id="Calque_2" data-name="Calque 2"><g id="Calque_2-2" data-name="Calque 2"><g id="tangram"><path class="cls-1" d="M125.5,13h-96a3,3,0,0,0-3,3v96a3,3,0,0,0,3,3h96a3,3,0,0,0,3-3V16A3,3,0,0,0,125.5,13Zm-8.8,6.6L77.3,59,37.8,19.6ZM82,63.8l19-19,19,19.1-19,19ZM93,84.3l-31.3-.1L77.3,68.6Zm-60-60L72.5,63.8,33,103.3ZM37.8,108l17-17H92.9L75.8,108.1Zm83.7,0H85.4l36.1-36Zm0-52.4L105.8,40l15.7-15.7Z"/></g><g id="ronds_couleur" data-name="ronds couleur"><g id="rouge"><circle class="cls-2" cx="53.5" cy="90" r="4"/></g><g id="jauneMoutarde"><circle class="cls-3" cx="76.5" cy="81" r="4"/></g><g id="fushia"><circle class="cls-4" cx="6.61" cy="41" r="4"/></g><g id="rose"><circle class="cls-5" cx="31.5" cy="61" r="4"/></g><g id="violet"><circle class="cls-6" cx="72.5" cy="46" r="4"/></g><g id="orange"><circle class="cls-7" cx="107.5" cy="99" r="4"/></g><g id="bleu"><circle class="cls-8" cx="95.5" cy="38" r="4"/></g><g id="bleuVert"><circle class="cls-9" cx="134.5" cy="45" r="4"/></g><g id="vert"><circle class="cls-10" cx="137.5" cy="90" r="4"/></g><g id="emeraude"><circle class="cls-11" cx="70.5" cy="4" r="4"/></g><g id="herbe"><circle class="cls-12" cx="131.5" cy="121.5" r="4"/></g></g><path class="cls-13" d=""/></g></g></svg>
